<svg width="35" height="35" viewBox="0 0 35 35" fill="none" xmlns="http://www.w3.org/2000/svg">
<path d="M13.5484 15.2395H10.537V24.8427H13.5484V15.2395Z" fill="black"/>
<path d="M21.6945 15.0312C21.5834 15.0173 21.4655 15.0104 21.3475 15.0034C19.6614 14.9341 18.7108 15.9332 18.3778 16.3634C18.2875 16.4814 18.2459 16.5508 18.2459 16.5508V15.2671H15.3663V24.8703H18.2459H18.3778C18.3778 23.892 18.3778 22.9205 18.3778 21.9422C18.3778 21.4148 18.3778 20.8875 18.3778 20.3601C18.3778 19.7079 18.3292 19.014 18.6553 18.4173C18.9329 17.9177 19.4324 17.6679 19.9945 17.6679C21.6598 17.6679 21.6945 19.1736 21.6945 19.3124C21.6945 19.3193 21.6945 19.3263 21.6945 19.3263V24.912H24.7059V18.6463C24.7059 16.5022 23.6165 15.2394 21.6945 15.0312Z" fill="black"/>
<path d="M12.0426 13.9974C13.0083 13.9974 13.7912 13.2145 13.7912 12.2488C13.7912 11.2831 13.0083 10.5002 12.0426 10.5002C11.0769 10.5002 10.2941 11.2831 10.2941 12.2488C10.2941 13.2145 11.0769 13.9974 12.0426 13.9974Z" fill="black"/>
</svg>
