<svg width="15" height="15" viewBox="0 0 15 15" fill="none" xmlns="http://www.w3.org/2000/svg">
<path d="M3.54853 5.23938H0.537109V14.8426H3.54853V5.23938Z" fill="white"/>
<path d="M11.6946 5.0311C11.5836 5.01722 11.4656 5.01028 11.3477 5.00335C9.66154 4.93396 8.71093 5.93314 8.37787 6.36334C8.28767 6.4813 8.24603 6.55069 8.24603 6.55069V5.26702H5.36646V14.8702H8.24603H8.37787C8.37787 13.8919 8.37787 12.9205 8.37787 11.9421C8.37787 11.4147 8.37787 10.8874 8.37787 10.3601C8.37787 9.70782 8.3293 9.01394 8.65542 8.41721C8.93297 7.91762 9.43256 7.66782 9.9946 7.66782C11.6599 7.66782 11.6946 9.17353 11.6946 9.31231C11.6946 9.31925 11.6946 9.32618 11.6946 9.32618V14.9119H14.706V8.64619C14.706 6.50212 13.6166 5.23926 11.6946 5.0311Z" fill="white"/>
<path d="M2.04275 3.99728C3.00846 3.99728 3.79132 3.21442 3.79132 2.24872C3.79132 1.28301 3.00846 0.500153 2.04275 0.500153C1.07704 0.500153 0.294189 1.28301 0.294189 2.24872C0.294189 3.21442 1.07704 3.99728 2.04275 3.99728Z" fill="white"/>
</svg>
