<svg width="44" height="44" viewBox="0 0 44 44" fill="none" xmlns="http://www.w3.org/2000/svg">
<rect width="44" height="44" fill="black"/>
<path d="M17.0322 19.158H13.2465V31.2306H17.0322V19.158Z" fill="white"/>
<path d="M27.2731 18.8961C27.1335 18.8787 26.9853 18.87 26.837 18.8613C24.7173 18.774 23.5222 20.0301 23.1035 20.571C22.9901 20.7193 22.9378 20.8065 22.9378 20.8065V19.1927H19.3177V31.2654H22.9378H23.1035C23.1035 30.0354 23.1035 28.8142 23.1035 27.5843C23.1035 26.9213 23.1035 26.2584 23.1035 25.5954C23.1035 24.7754 23.0425 23.9031 23.4525 23.153C23.8014 22.5249 24.4294 22.2109 25.136 22.2109C27.2295 22.2109 27.2731 24.1038 27.2731 24.2782C27.2731 24.287 27.2731 24.2957 27.2731 24.2957V31.3177H31.0589V23.4408C31.0589 20.7454 29.6894 19.1578 27.2731 18.8961Z" fill="white"/>
<path d="M15.1394 17.5966C16.3534 17.5966 17.3376 16.6124 17.3376 15.3984C17.3376 14.1844 16.3534 13.2002 15.1394 13.2002C13.9253 13.2002 12.9412 14.1844 12.9412 15.3984C12.9412 16.6124 13.9253 17.5966 15.1394 17.5966Z" fill="white"/>
</svg>
