<svg width="19" height="29" viewBox="0 0 19 29" fill="none" xmlns="http://www.w3.org/2000/svg">
<path fill-rule="evenodd" clip-rule="evenodd" d="M9.49858 0.828618C7.1601 0.828618 4.91746 1.75668 3.26312 3.40934C1.60877 5.06199 0.678241 7.30385 0.676056 9.64233C0.676056 14.5095 8.93193 27.7737 8.93193 27.7737C9.24909 28.305 9.76556 28.305 10.0788 27.7737C10.0788 27.7737 18.3234 14.5237 18.3234 9.64233H18.3237C18.3229 7.30279 17.3926 5.0596 15.7372 3.40659C14.0821 1.75337 11.8375 0.826151 9.49822 0.828618H9.49858ZM9.49858 11.5343C8.67927 11.5343 7.89329 11.2089 7.31402 10.6297C6.7345 10.0501 6.40908 9.26443 6.40908 8.44511C6.40908 7.62552 6.73449 6.83982 7.31402 6.26027C7.89327 5.68102 8.67927 5.35561 9.49858 5.35561C10.3179 5.35561 11.1036 5.68102 11.6831 6.26055C12.2624 6.84008 12.5878 7.6258 12.5878 8.44511C12.5886 9.26471 12.2632 10.051 11.6837 10.6305C11.1042 11.2101 10.3182 11.5352 9.49858 11.5343Z" fill="black"/>
</svg>
